<svg width="35" height="36" viewBox="0 0 35 36" fill="none" xmlns="http://www.w3.org/2000/svg">
<path d="M25.3272 0.277791C41.079 -2.08796 30.9871 11.328 26.1059 15.1012C29.4598 17.6766 32.9036 21.3001 34.371 25.4027C37.0961 32.9192 30.3882 34.0272 25.3272 32.1406C19.7872 30.1941 14.906 26.0316 11.6718 21.1503C10.7734 21.1503 9.78515 21.0006 8.85681 20.7311C10.6835 25.8818 11.4621 31.1524 10.953 35.4646C10.953 26.7802 6.82047 18.1557 0.861165 10.9686C-1.23507 8.45312 0.921055 6.59645 2.80767 9.02209C4.09536 10.7889 5.26326 12.6156 6.31138 14.5023C8.37767 7.43495 18.4396 1.26602 25.3272 0.277791ZM23.0813 13.0648C26.1657 11.1782 35.5389 1.11629 26.7946 2.01467C21.7636 2.58365 15.6546 7.22532 13.1391 10.2199C16.6428 9.8007 20.2064 11.328 23.0813 13.0648ZM14.3969 20.8808C17.2118 24.0252 21.0449 27.0797 25.1775 28.1877C27.5732 28.8166 30.2085 28.5471 29.2502 25.1332C28.262 21.9888 25.7465 19.2338 23.2909 17.1375C22.6021 17.6167 21.8235 18.1258 21.0449 18.4552C18.9487 19.6231 16.7027 20.4616 14.3969 20.8808Z" fill="#EBA12A"/>
</svg>
